<?xml version="1.0" encoding="UTF-8" standalone="no"?>
<!DOCTYPE svg PUBLIC "-//W3C//DTD SVG 1.1//EN"
 "http://www.w3.org/Graphics/SVG/1.1/DTD/svg11.dtd">
<!-- Generated by graphviz version 2.26.3 (20100126.1600)
 -->
<!-- Title: mne&#45;python flow diagram Pages: 1 -->
<svg width="607pt" height="554pt"
 viewBox="0.00 0.00 607.00 554.00" xmlns="http://www.w3.org/2000/svg" xmlns:xlink="http://www.w3.org/1999/xlink">
<g id="graph1" class="graph" transform="scale(1 1) rotate(0) translate(4 550)">
<title>mne&#45;python flow diagram</title>
<polygon fill="white" stroke="white" points="-4,5 -4,-550 604,-550 604,5 -4,5"/>
<g id="graph2" class="cluster"><title>cluster0</title>
<polygon fill="none" stroke="black" points="335,-242 335,-538 591,-538 591,-242 335,-242"/>
<text text-anchor="start" x="396.5" y="-523.733" font-family="Arial" font-size="14.00">Structural information</text>
<text text-anchor="start" x="423.5" y="-510.6" font-family="Arial" font-size="9.00">Freesurfer / MNE&#45;C</text>
</g>
<!-- src -->
<g id="node2" class="node"><title>src</title>
<polygon fill="#ff6347" stroke="#ff6347" points="453,-286 355,-286 355,-250 453,-250 453,-286"/>
<text text-anchor="start" x="367.5" y="-272.2" font-family="Arial" font-size="12.00">Source space</text>
<text text-anchor="start" x="363" y="-260" font-family="Arial" font-size="9.00">mne.SourceSpaces</text>
</g>
<!-- fwd -->
<g id="node14" class="node"><title>fwd</title>
<polygon fill="#ff6347" stroke="#ff6347" points="449,-204 345,-204 345,-168 449,-168 449,-204"/>
<text text-anchor="start" x="353.5" y="-190.2" font-family="Arial" font-size="12.00">Forward solution</text>
<text text-anchor="start" x="353" y="-178" font-family="Arial" font-size="9.00">mne.forward.Forward</text>
</g>
<!-- src&#45;&gt;fwd -->
<g id="edge12" class="edge"><title>src&#45;&gt;fwd</title>
<path fill="none" stroke="black" d="M402.45,-249.8C401.56,-239.4 400.43,-226.12 399.42,-214.38"/>
<polygon fill="black" stroke="black" points="402.885,-213.817 398.55,-204.15 395.91,-214.411 402.885,-213.817"/>
</g>
<!-- bem -->
<g id="node3" class="node"><title>bem</title>
<polygon fill="#ff6347" stroke="#ff6347" points="547,-286 493,-286 493,-250 547,-250 547,-286"/>
<text text-anchor="middle" x="520" y="-263.4" font-family="Arial" font-size="14.00">BEM</text>
</g>
<!-- bem&#45;&gt;fwd -->
<g id="edge14" class="edge"><title>bem&#45;&gt;fwd</title>
<path fill="none" stroke="black" d="M492.7,-249.8C475.03,-238.02 451.82,-222.55 432.69,-209.79"/>
<polygon fill="black" stroke="black" points="434.483,-206.779 424.22,-204.15 430.604,-212.606 434.483,-206.779"/>
</g>
<!-- recon -->
<g id="node4" class="node"><title>recon</title>
<polygon fill="#ff6347" stroke="#ff6347" points="485,-368 343,-368 343,-332 485,-332 485,-368"/>
<text text-anchor="middle" x="414" y="-345.4" font-family="Arial" font-size="14.00">Freesurfer surfaces</text>
</g>
<!-- recon&#45;&gt;src -->
<g id="edge3" class="edge"><title>recon&#45;&gt;src</title>
<path fill="none" stroke="black" d="M408.62,-331.84C407.17,-326.18 405.79,-319.87 405,-314 404.24,-308.36 403.83,-302.29 403.63,-296.48"/>
<polygon fill="black" stroke="black" points="407.129,-296.369 403.46,-286.43 400.13,-296.488 407.129,-296.369"/>
<text text-anchor="start" x="405" y="-307.4" font-family="Arial" font-size="9.00">mne.setup_source_space</text>
</g>
<!-- recon&#45;&gt;bem -->
<g id="edge5" class="edge"><title>recon&#45;&gt;bem</title>
<path fill="none" stroke="black" d="M481.37,-331.96C496.71,-326.55 509.98,-320.36 515,-314 518.89,-309.07 520.87,-302.87 521.75,-296.62"/>
<polygon fill="black" stroke="black" points="525.264,-296.468 522.32,-286.29 518.274,-296.082 525.264,-296.468"/>
</g>
<!-- T1 -->
<g id="node7" class="node"><title>T1</title>
<polygon fill="#ff6347" stroke="#ff6347" points="441,-494 387,-494 387,-458 441,-458 441,-494"/>
<text text-anchor="middle" x="414" y="-471.4" font-family="Arial" font-size="14.00">T1</text>
</g>
<!-- T1&#45;&gt;recon -->
<g id="edge7" class="edge"><title>T1&#45;&gt;recon</title>
<path fill="none" stroke="black" d="M414,-457.95C414,-437.08 414,-402.49 414,-378.1"/>
<polygon fill="black" stroke="black" points="417.5,-378.02 414,-368.02 410.5,-378.02 417.5,-378.02"/>
</g>
<!-- flashes -->
<g id="node9" class="node"><title>flashes</title>
<polygon fill="#ff6347" stroke="#ff6347" points="583,-368 503,-368 503,-332 583,-332 583,-368"/>
<text text-anchor="middle" x="543" y="-345.4" font-family="Arial" font-size="14.00">Flash5/30</text>
</g>
<!-- flashes&#45;&gt;bem -->
<g id="edge9" class="edge"><title>flashes&#45;&gt;bem</title>
<path fill="none" stroke="black" d="M537.9,-331.8C534.95,-321.29 531.18,-307.85 527.86,-296.02"/>
<polygon fill="black" stroke="black" points="531.162,-294.832 525.09,-286.15 524.422,-296.724 531.162,-294.832"/>
</g>
<!-- inv -->
<g id="node12" class="node"><title>inv</title>
<polygon fill="#7bbeca" stroke="#7bbeca" points="388,-116 214,-116 214,-80 388,-80 388,-116"/>
<text text-anchor="start" x="258.5" y="-102.2" font-family="Arial" font-size="12.00">Inverse operator</text>
<text text-anchor="start" x="222.5" y="-90" font-family="Arial" font-size="9.00">mne.minimum_norm.InverseOperator</text>
</g>
<!-- stc -->
<g id="node17" class="node"><title>stc</title>
<polygon fill="#ff6347" stroke="#ff6347" points="168,-36 64,-36 64,-1.77636e-14 168,-3.55271e-15 168,-36"/>
<text text-anchor="start" x="73" y="-22.2" font-family="Arial" font-size="12.00">Source estimate</text>
<text text-anchor="start" x="72" y="-10" font-family="Arial" font-size="9.00">mne.SourceEstimate</text>
</g>
<!-- inv&#45;&gt;stc -->
<g id="edge16" class="edge"><title>inv&#45;&gt;stc</title>
<path fill="none" stroke="black" d="M259.02,-79.847C231.82,-68.084 196.21,-52.685 167.33,-40.196"/>
<polygon fill="black" stroke="black" points="168.378,-36.836 157.81,-36.081 165.6,-43.2615 168.378,-36.836"/>
</g>
<!-- legend -->
<g id="node13" class="node"><title>legend</title>
<polygon fill="#7bbeca" stroke="#7bbeca" points="410,-99 410,-117 429,-117 429,-99 410,-99"/>
<text text-anchor="start" x="414.5" y="-105.9" font-family="Arial" font-size="9.00"> &#160;&#160;&#160;</text>
<text text-anchor="start" x="437" y="-105.9" font-family="Arial" font-size="9.00">Sensor (M/EEG) space</text>
<polygon fill="#ff6347" stroke="#ff6347" points="410,-78 410,-95 429,-95 429,-78 410,-78"/>
<text text-anchor="start" x="414.5" y="-84.4" font-family="Arial" font-size="9.00"> &#160;&#160;&#160;</text>
<text text-anchor="start" x="437" y="-84.4" font-family="Arial" font-size="9.00">Source (brain) space</text>
</g>
<!-- fwd&#45;&gt;inv -->
<g id="edge24" class="edge"><title>fwd&#45;&gt;inv</title>
<path fill="none" stroke="black" d="M383.09,-167.66C376.02,-158.87 367.03,-148.43 358,-140 351.41,-133.85 343.93,-127.78 336.59,-122.24"/>
<polygon fill="black" stroke="black" points="338.252,-119.118 328.12,-116.02 334.108,-124.76 338.252,-119.118"/>
</g>
<!-- pre -->
<g id="node19" class="node"><title>pre</title>
<polygon fill="#7bbeca" stroke="#7bbeca" points="151,-368 33,-368 33,-332 151,-332 151,-368"/>
<text text-anchor="start" x="41.5" y="-354.2" font-family="Arial" font-size="12.00">Preprocessed data</text>
<text text-anchor="start" x="67" y="-342" font-family="Arial" font-size="9.00">mne.io.Raw</text>
</g>
<!-- epo -->
<g id="node20" class="node"><title>epo</title>
<polygon fill="#7bbeca" stroke="#7bbeca" points="137,-286 47,-286 47,-250 137,-250 137,-286"/>
<text text-anchor="start" x="55" y="-272.2" font-family="Arial" font-size="12.00">Epoched data</text>
<text text-anchor="start" x="65.5" y="-260" font-family="Arial" font-size="9.00">mne.Epochs</text>
</g>
<!-- pre&#45;&gt;epo -->
<g id="edge18" class="edge"><title>pre&#45;&gt;epo</title>
<path fill="none" stroke="black" d="M92,-331.8C92,-321.4 92,-308.12 92,-296.38"/>
<polygon fill="black" stroke="black" points="95.5001,-296.15 92,-286.15 88.5001,-296.15 95.5001,-296.15"/>
<text text-anchor="start" x="92" y="-307.4" font-family="Arial" font-size="9.00">mne.Epochs</text>
</g>
<!-- evo -->
<g id="node22" class="node"><title>evo</title>
<polygon fill="#7bbeca" stroke="#7bbeca" points="94,-204 4.9738e-14,-204 0,-168 94,-168 94,-204"/>
<text text-anchor="start" x="8" y="-190.2" font-family="Arial" font-size="12.00">Averaged data</text>
<text text-anchor="start" x="21" y="-178" font-family="Arial" font-size="9.00">mne.Evoked</text>
</g>
<!-- epo&#45;&gt;evo -->
<g id="edge20" class="edge"><title>epo&#45;&gt;evo</title>
<path fill="none" stroke="black" d="M62.204,-249.64C56.498,-244.66 51.286,-238.74 48,-232 45.42,-226.7 44.243,-220.64 43.875,-214.69"/>
<polygon fill="black" stroke="black" points="47.3779,-214.328 43.959,-204.3 40.3782,-214.271 47.3779,-214.328"/>
<text text-anchor="start" x="48" y="-225.4" font-family="Arial" font-size="9.00">epochs.average</text>
</g>
<!-- cov -->
<g id="node24" class="node"><title>cov</title>
<polygon fill="#7bbeca" stroke="#7bbeca" points="271,-204 163,-204 163,-168 271,-168 271,-204"/>
<text text-anchor="start" x="171.5" y="-190.2" font-family="Arial" font-size="12.00">Noise covariance</text>
<text text-anchor="start" x="183" y="-178" font-family="Arial" font-size="9.00">mne.Covariance</text>
</g>
<!-- epo&#45;&gt;cov -->
<g id="edge22" class="edge"><title>epo&#45;&gt;cov</title>
<path fill="none" stroke="black" d="M107.72,-249.88C116.32,-240.72 127.53,-229.91 139,-222 146.14,-217.08 154.05,-212.54 162.03,-208.46"/>
<polygon fill="black" stroke="black" points="163.583,-211.596 171.02,-204.05 160.501,-205.312 163.583,-211.596"/>
<text text-anchor="start" x="139" y="-225.4" font-family="Arial" font-size="9.00">mne.compute_covariance</text>
</g>
<!-- evo&#45;&gt;stc -->
<g id="edge26" class="edge"><title>evo&#45;&gt;stc</title>
<path fill="none" stroke="black" d="M44.595,-167.9C42.371,-144.85 41.32,-104.39 56,-74 61.771,-62.054 71.281,-51.39 81.047,-42.655"/>
<polygon fill="black" stroke="black" points="83.4681,-45.1921 88.867,-36.076 78.9616,-39.8356 83.4681,-45.1921"/>
<text text-anchor="start" x="56" y="-96.4" font-family="Arial" font-size="9.00">mne.minimum_norm.apply_inverse</text>
</g>
<!-- cov&#45;&gt;inv -->
<g id="edge30" class="edge"><title>cov&#45;&gt;inv</title>
<path fill="none" stroke="black" d="M222.24,-167.61C225.45,-158.6 230.27,-147.99 237,-140 242.66,-133.28 249.67,-127.23 256.95,-121.95"/>
<polygon fill="black" stroke="black" points="259.243,-124.623 265.55,-116.11 255.311,-118.832 259.243,-124.623"/>
<text text-anchor="start" x="237" y="-143.4" font-family="Arial" font-size="9.00">mne.make_inverse_operator</text>
</g>
<!-- raw -->
<g id="node28" class="node"><title>raw</title>
<polygon fill="#7bbeca" stroke="#7bbeca" points="125,-494 59,-494 59,-458 125,-458 125,-494"/>
<text text-anchor="start" x="67" y="-480.2" font-family="Arial" font-size="12.00">Raw data</text>
<text text-anchor="start" x="67" y="-468" font-family="Arial" font-size="9.00">mne.io.Raw</text>
</g>
<!-- raw&#45;&gt;pre -->
<g id="edge28" class="edge"><title>raw&#45;&gt;pre</title>
<path fill="none" stroke="black" d="M92,-457.95C92,-437.08 92,-402.49 92,-378.1"/>
<polygon fill="black" stroke="black" points="95.5001,-378.02 92,-368.02 88.5001,-378.02 95.5001,-378.02"/>
<text text-anchor="start" x="92" y="-433.4" font-family="Arial" font-size="9.00">raw.filter</text>
<text text-anchor="start" x="92" y="-422.6" font-family="Arial" font-size="9.00">mne.preprocessing.ICA</text>
<text text-anchor="start" x="92" y="-411.8" font-family="Arial" font-size="9.00">mne.preprocessing.compute_proj_eog</text>
<text text-anchor="start" x="92" y="-401" font-family="Arial" font-size="9.00">mne.preprocessing.compute_proj_ecg</text>
<text text-anchor="start" x="92" y="-390.2" font-family="Arial" font-size="9.00">...</text>
</g>
<!-- trans -->
<g id="node31" class="node"><title>trans</title>
<polygon fill="#7bbeca" stroke="#7bbeca" points="327,-286 211,-286 211,-250 327,-250 327,-286"/>
<text text-anchor="middle" x="269" y="-263.4" font-family="Arial" font-size="14.00">Head&#45;MRI trans</text>
</g>
<!-- trans&#45;&gt;fwd -->
<g id="edge32" class="edge"><title>trans&#45;&gt;fwd</title>
<path fill="none" stroke="black" d="M267.87,-249.92C268.24,-240.55 270.33,-229.52 277,-222 285.25,-212.7 310.07,-204.53 335,-198.33"/>
<polygon fill="black" stroke="black" points="335.984,-201.694 344.9,-195.97 334.361,-194.884 335.984,-201.694"/>
<text text-anchor="start" x="277" y="-225.4" font-family="Arial" font-size="9.00">mne.make_forward_solution</text>
</g>
</g>
</svg>
