<?xml version="1.0" encoding="UTF-8" standalone="no"?>
<!DOCTYPE svg PUBLIC "-//W3C//DTD SVG 1.1//EN"
 "http://www.w3.org/Graphics/SVG/1.1/DTD/svg11.dtd">
<!-- Generated by graphviz version 2.38.0 (20140413.2041)
 -->
<!-- Title: mne&#45;python flow diagram Pages: 1 -->
<svg width="598pt" height="531pt"
 viewBox="0.00 0.00 598.00 531.00" xmlns="http://www.w3.org/2000/svg" xmlns:xlink="http://www.w3.org/1999/xlink">
<g id="graph0" class="graph" transform="scale(1 1) rotate(0) translate(4 527)">
<title>mne&#45;python flow diagram</title>
<polygon fill="white" stroke="none" points="-4,4 -4,-527 594,-527 594,4 -4,4"/>
<g id="clust2" class="cluster"><title>cluster0</title>
<polygon fill="none" stroke="black" points="334,-241 334,-523 590,-523 590,-241 334,-241"/>
<text text-anchor="start" x="395.5" y="-508.8" font-family="Arial" font-size="14.00">Structural information</text>
<text text-anchor="start" x="422.5" y="-498.8" font-family="Arial" font-style="italic" font-size="9.00">Freesurfer / MNE&#45;C</text>
</g>
<!-- inv -->
<g id="node1" class="node"><title>inv</title>
<defs>
<linearGradient id="l_0" gradientUnits="userSpaceOnUse" x1="300" y1="-115" x2="300" y2="-79" >
<stop offset="0" style="stop-color:#7bbeca;stop-opacity:1.;"/>
<stop offset="1" style="stop-color:#ff6347;stop-opacity:1.;"/>
</linearGradient>
</defs>
<polygon fill="url(#l_0)" stroke="none" points="386.5,-115 213.5,-115 213.5,-79 386.5,-79 386.5,-115"/>
<text text-anchor="start" x="257.5" y="-98.9" font-family="Arial" font-size="12.00">Inverse operator</text>
<text text-anchor="start" x="221.5" y="-89.3" font-family="Arial" font-style="italic" font-size="9.00">mne.minimum_norm.InverseOperator</text>
</g>
<!-- stc -->
<g id="node9" class="node"><title>stc</title>
<polygon fill="#ff6347" stroke="none" points="167.5,-36 64.5,-36 64.5,-0 167.5,-0 167.5,-36"/>
<text text-anchor="start" x="73" y="-19.9" font-family="Arial" font-size="12.00">Source estimate</text>
<text text-anchor="start" x="72.5" y="-10.3" font-family="Arial" font-style="italic" font-size="9.00">mne.SourceEstimate</text>
</g>
<!-- inv&#45;&gt;stc -->
<g id="edge7" class="edge"><title>inv&#45;&gt;stc</title>
<path fill="none" stroke="black" d="M259.16,-78.911C231.77,-67.447 195.5,-52.269 166.32,-40.058"/>
<polygon fill="black" stroke="black" points="167.296,-36.6724 156.72,-36.041 164.594,-43.1299 167.296,-36.6724"/>
</g>
<!-- legend -->
<g id="node2" class="node"><title>legend</title>
<polygon fill="#7bbeca" stroke="none" points="409,-99 409,-117 427,-117 427,-99 409,-99"/>
<text text-anchor="start" x="413" y="-105.8" font-family="Arial" font-size="9.00"> &#160;&#160;&#160;</text>
<text text-anchor="start" x="435" y="-105.8" font-family="Arial" font-size="9.00">Sensor (M/EEG) space</text>
<polygon fill="#ff6347" stroke="none" points="409,-77 409,-95 427,-95 427,-77 409,-77"/>
<text text-anchor="start" x="413" y="-83.8" font-family="Arial" font-size="9.00"> &#160;&#160;&#160;</text>
<text text-anchor="start" x="435" y="-83.8" font-family="Arial" font-size="9.00">Source (brain) space</text>
</g>
<!-- src -->
<g id="node3" class="node"><title>src</title>
<polygon fill="#ff6347" stroke="none" points="450,-285 352,-285 352,-249 450,-249 450,-285"/>
<text text-anchor="start" x="364.5" y="-268.9" font-family="Arial" font-size="12.00">Source space</text>
<text text-anchor="start" x="360" y="-259.3" font-family="Arial" font-style="italic" font-size="9.00">mne.SourceSpaces</text>
</g>
<!-- fwd -->
<g id="node8" class="node"><title>fwd</title>
<defs>
<linearGradient id="l_1" gradientUnits="userSpaceOnUse" x1="394" y1="-203" x2="394" y2="-167" >
<stop offset="0" style="stop-color:#ff6347;stop-opacity:1.;"/>
<stop offset="1" style="stop-color:#7bbeca;stop-opacity:1.;"/>
</linearGradient>
</defs>
<polygon fill="url(#l_1)" stroke="none" points="445.5,-203 342.5,-203 342.5,-167 445.5,-167 445.5,-203"/>
<text text-anchor="start" x="350.5" y="-186.9" font-family="Arial" font-size="12.00">Forward solution</text>
<text text-anchor="start" x="350.5" y="-177.3" font-family="Arial" font-style="italic" font-size="9.00">mne.forward.Forward</text>
</g>
<!-- src&#45;&gt;fwd -->
<g id="edge5" class="edge"><title>src&#45;&gt;fwd</title>
<path fill="none" stroke="black" d="M399.48,-248.64C398.58,-238.3 397.41,-224.94 396.38,-213.22"/>
<polygon fill="black" stroke="black" points="399.849,-212.707 395.49,-203.05 392.875,-213.317 399.849,-212.707"/>
</g>
<!-- bem -->
<g id="node4" class="node"><title>bem</title>
<polygon fill="#ff6347" stroke="none" points="541,-285 487,-285 487,-249 541,-249 541,-285"/>
<text text-anchor="middle" x="514" y="-263.3" font-family="Arial" font-size="14.00">BEM</text>
</g>
<!-- bem&#45;&gt;fwd -->
<g id="edge6" class="edge"><title>bem&#45;&gt;fwd</title>
<path fill="none" stroke="black" d="M488.26,-248.84C470.7,-237.13 447.26,-221.5 428.14,-208.76"/>
<polygon fill="black" stroke="black" points="429.961,-205.768 419.7,-203.13 426.077,-211.591 429.961,-205.768"/>
</g>
<!-- recon -->
<g id="node5" class="node"><title>recon</title>
<polygon fill="#ff6347" stroke="none" points="484,-367 342,-367 342,-331 484,-331 484,-367"/>
<text text-anchor="middle" x="413" y="-345.3" font-family="Arial" font-size="14.00">Freesurfer surfaces</text>
</g>
<!-- recon&#45;&gt;src -->
<g id="edge1" class="edge"><title>recon&#45;&gt;src</title>
<path fill="none" stroke="black" d="M406.53,-330.79C404.72,-325.2 402.97,-318.91 402,-313 401.06,-307.31 400.58,-301.17 400.37,-295.3"/>
<polygon fill="black" stroke="black" points="403.869,-295.158 400.25,-285.2 396.869,-295.241 403.869,-295.158"/>
<text text-anchor="start" x="402" y="-306.8" font-family="Arial" font-style="italic" font-size="9.00">mne.setup_source_space</text>
</g>
<!-- recon&#45;&gt;bem -->
<g id="edge2" class="edge"><title>recon&#45;&gt;bem</title>
<path fill="none" stroke="black" d="M484.09,-332.59C493.66,-327.74 502.42,-321.37 509,-313 512.92,-308.01 514.86,-301.69 515.69,-295.38"/>
<polygon fill="black" stroke="black" points="519.204,-295.154 516.18,-285 512.212,-294.824 519.204,-295.154"/>
</g>
<!-- T1 -->
<g id="node6" class="node"><title>T1</title>
<polygon fill="#ff6347" stroke="none" points="440,-484 386,-484 386,-448 440,-448 440,-484"/>
<text text-anchor="middle" x="413" y="-462.3" font-family="Arial" font-size="14.00">T1</text>
</g>
<!-- T1&#45;&gt;recon -->
<g id="edge3" class="edge"><title>T1&#45;&gt;recon</title>
<path fill="none" stroke="black" d="M413,-447.53C413,-428.94 413,-399.24 413,-377.5"/>
<polygon fill="black" stroke="black" points="416.5,-377.25 413,-367.25 409.5,-377.25 416.5,-377.25"/>
</g>
<!-- flashes -->
<g id="node7" class="node"><title>flashes</title>
<polygon fill="#ff6347" stroke="none" points="582,-367 502,-367 502,-331 582,-331 582,-367"/>
<text text-anchor="middle" x="542" y="-345.3" font-family="Arial" font-size="14.00">Flash5/30</text>
</g>
<!-- flashes&#45;&gt;bem -->
<g id="edge4" class="edge"><title>flashes&#45;&gt;bem</title>
<path fill="none" stroke="black" d="M535.92,-330.64C532.23,-320.09 527.44,-306.39 523.28,-294.51"/>
<polygon fill="black" stroke="black" points="526.576,-293.333 519.97,-285.05 519.969,-295.645 526.576,-293.333"/>
</g>
<!-- fwd&#45;&gt;inv -->
<g id="edge8" class="edge"><title>fwd&#45;&gt;inv</title>
<path fill="none" stroke="black" d="M380.72,-166.98C373.53,-158.21 364.24,-147.58 355,-139 348.42,-132.88 340.93,-126.81 333.65,-121.28"/>
<polygon fill="black" stroke="black" points="335.391,-118.214 325.27,-115.08 331.227,-123.841 335.391,-118.214"/>
</g>
<!-- pre -->
<g id="node10" class="node"><title>pre</title>
<polygon fill="#7bbeca" stroke="none" points="150.5,-367 33.5,-367 33.5,-331 150.5,-331 150.5,-367"/>
<text text-anchor="start" x="41.5" y="-350.9" font-family="Arial" font-size="12.00">Preprocessed data</text>
<text text-anchor="start" x="67.5" y="-341.3" font-family="Arial" font-style="italic" font-size="9.00">mne.io.Raw</text>
</g>
<!-- epo -->
<g id="node11" class="node"><title>epo</title>
<polygon fill="#7bbeca" stroke="none" points="137,-285 47,-285 47,-249 137,-249 137,-285"/>
<text text-anchor="start" x="55" y="-268.9" font-family="Arial" font-size="12.00">Epoched data</text>
<text text-anchor="start" x="66" y="-259.3" font-family="Arial" font-style="italic" font-size="9.00">mne.Epochs</text>
</g>
<!-- pre&#45;&gt;epo -->
<g id="edge9" class="edge"><title>pre&#45;&gt;epo</title>
<path fill="none" stroke="black" d="M92,-330.64C92,-320.3 92,-306.94 92,-295.22"/>
<polygon fill="black" stroke="black" points="95.5001,-295.05 92,-285.05 88.5001,-295.05 95.5001,-295.05"/>
<text text-anchor="start" x="92" y="-306.8" font-family="Arial" font-style="italic" font-size="9.00">mne.Epochs</text>
</g>
<!-- evo -->
<g id="node12" class="node"><title>evo</title>
<polygon fill="#7bbeca" stroke="none" points="94,-203 -7.10543e-15,-203 -7.10543e-15,-167 94,-167 94,-203"/>
<text text-anchor="start" x="8" y="-186.9" font-family="Arial" font-size="12.00">Averaged data</text>
<text text-anchor="start" x="20.5" y="-177.3" font-family="Arial" font-style="italic" font-size="9.00">mne.Evoked</text>
</g>
<!-- epo&#45;&gt;evo -->
<g id="edge10" class="edge"><title>epo&#45;&gt;evo</title>
<path fill="none" stroke="black" d="M62.673,-248.66C56.79,-243.73 51.384,-237.82 48,-231 45.352,-225.66 44.193,-219.51 43.87,-213.51"/>
<polygon fill="black" stroke="black" points="47.3773,-213.12 44.053,-203.06 40.3783,-212.997 47.3773,-213.12"/>
<text text-anchor="start" x="48" y="-224.8" font-family="Arial" font-style="italic" font-size="9.00">epochs.average</text>
</g>
<!-- cov -->
<g id="node13" class="node"><title>cov</title>
<polygon fill="#7bbeca" stroke="none" points="268.5,-203 161.5,-203 161.5,-167 268.5,-167 268.5,-203"/>
<text text-anchor="start" x="169.5" y="-186.9" font-family="Arial" font-size="12.00">Noise covariance</text>
<text text-anchor="start" x="180.5" y="-177.3" font-family="Arial" font-style="italic" font-size="9.00">mne.Covariance</text>
</g>
<!-- epo&#45;&gt;cov -->
<g id="edge11" class="edge"><title>epo&#45;&gt;cov</title>
<path fill="none" stroke="black" d="M106.96,-248.69C115.42,-239.63 126.57,-228.83 138,-221 145.22,-216.06 153.25,-211.52 161.32,-207.46"/>
<polygon fill="black" stroke="black" points="162.907,-210.581 170.41,-203.1 159.88,-204.269 162.907,-210.581"/>
<text text-anchor="start" x="138" y="-224.8" font-family="Arial" font-style="italic" font-size="9.00">mne.compute_covariance</text>
</g>
<!-- evo&#45;&gt;stc -->
<g id="edge12" class="edge"><title>evo&#45;&gt;stc</title>
<path fill="none" stroke="black" d="M44.627,-166.8C42.3,-144.06 40.996,-103.33 56,-73 61.835,-61.205 71.462,-50.798 81.314,-42.348"/>
<polygon fill="black" stroke="black" points="83.6027,-44.9987 89.195,-36 79.2116,-39.5472 83.6027,-44.9987"/>
<text text-anchor="start" x="56" y="-95.8" font-family="Arial" font-style="italic" font-size="9.00">mne.minimum_norm.apply_inverse</text>
</g>
<!-- cov&#45;&gt;inv -->
<g id="edge13" class="edge"><title>cov&#45;&gt;inv</title>
<path fill="none" stroke="black" d="M219.5,-166.82C222.5,-157.8 227.17,-146.99 234,-139 239.99,-132 247.48,-125.81 255.24,-120.51"/>
<polygon fill="black" stroke="black" points="257.172,-123.429 263.72,-115.1 253.407,-117.528 257.172,-123.429"/>
<text text-anchor="start" x="234" y="-142.8" font-family="Arial" font-style="italic" font-size="9.00">mne.make_inverse_operator</text>
</g>
<!-- raw -->
<g id="node14" class="node"><title>raw</title>
<polygon fill="#7bbeca" stroke="none" points="125,-484 59,-484 59,-448 125,-448 125,-484"/>
<text text-anchor="start" x="67" y="-467.9" font-family="Arial" font-size="12.00">Raw data</text>
<text text-anchor="start" x="67.5" y="-458.3" font-family="Arial" font-style="italic" font-size="9.00">mne.io.Raw</text>
</g>
<!-- raw&#45;&gt;pre -->
<g id="edge14" class="edge"><title>raw&#45;&gt;pre</title>
<path fill="none" stroke="black" d="M92,-447.53C92,-428.94 92,-399.24 92,-377.5"/>
<polygon fill="black" stroke="black" points="95.5001,-377.25 92,-367.25 88.5001,-377.25 95.5001,-377.25"/>
<text text-anchor="start" x="92" y="-423.8" font-family="Arial" font-style="italic" font-size="9.00">raw.filter</text>
<text text-anchor="start" x="92" y="-414.8" font-family="Arial" font-style="italic" font-size="9.00">mne.preprocessing.ICA</text>
<text text-anchor="start" x="92" y="-405.8" font-family="Arial" font-style="italic" font-size="9.00">mne.preprocessing.compute_proj_eog</text>
<text text-anchor="start" x="92" y="-396.8" font-family="Arial" font-style="italic" font-size="9.00">mne.preprocessing.compute_proj_ecg</text>
<text text-anchor="start" x="92" y="-387.8" font-family="Arial" font-style="italic" font-size="9.00">...</text>
</g>
<!-- trans -->
<g id="node15" class="node"><title>trans</title>
<defs>
<linearGradient id="l_2" gradientUnits="userSpaceOnUse" x1="268" y1="-285" x2="268" y2="-249" >
<stop offset="0" style="stop-color:#7bbeca;stop-opacity:1.;"/>
<stop offset="1" style="stop-color:#ff6347;stop-opacity:1.;"/>
</linearGradient>
</defs>
<polygon fill="url(#l_2)" stroke="none" points="326,-285 210,-285 210,-249 326,-249 326,-285"/>
<text text-anchor="middle" x="268" y="-263.3" font-family="Arial" font-size="14.00">Head&#45;MRI trans</text>
</g>
<!-- trans&#45;&gt;fwd -->
<g id="edge15" class="edge"><title>trans&#45;&gt;fwd</title>
<path fill="none" stroke="black" d="M266.94,-248.74C267.3,-239.47 269.34,-228.46 276,-221 290.38,-204.91 311.77,-196.07 332.41,-191.26"/>
<polygon fill="black" stroke="black" points="333.352,-194.64 342.45,-189.21 331.952,-187.781 333.352,-194.64"/>
<text text-anchor="start" x="276" y="-224.8" font-family="Arial" font-style="italic" font-size="9.00">mne.make_forward_solution</text>
</g>
</g>
</svg>
