<?xml version="1.0" encoding="UTF-8" standalone="no"?>
<!DOCTYPE svg PUBLIC "-//W3C//DTD SVG 1.1//EN"
 "http://www.w3.org/Graphics/SVG/1.1/DTD/svg11.dtd">
<!-- Generated by graphviz version 2.26.3 (20100126.1600)
 -->
<!-- Title: mne&#45;python flow diagram Pages: 1 -->
<svg width="597pt" height="554pt"
 viewBox="0.00 0.00 597.00 554.00" xmlns="http://www.w3.org/2000/svg" xmlns:xlink="http://www.w3.org/1999/xlink">
<g id="graph1" class="graph" transform="scale(1 1) rotate(0) translate(4 550)">
<title>mne&#45;python flow diagram</title>
<polygon fill="white" stroke="white" points="-4,5 -4,-550 594,-550 594,5 -4,5"/>
<g id="graph2" class="cluster"><title>cluster0</title>
<polygon fill="none" stroke="black" points="209,-242 209,-538 465,-538 465,-242 209,-242"/>
<text text-anchor="start" x="270.5" y="-523.733" font-family="Arial" font-size="14.00">Structural information</text>
<text text-anchor="start" x="297.5" y="-510.6" font-family="Arial" font-size="9.00">Freesurfer / MNE&#45;C</text>
</g>
<!-- src -->
<g id="node2" class="node"><title>src</title>
<polygon fill="#ff6347" stroke="#ff6347" points="348,-286 250,-286 250,-250 348,-250 348,-286"/>
<text text-anchor="start" x="262.5" y="-272.2" font-family="Arial" font-size="12.00">Source space</text>
<text text-anchor="start" x="258" y="-260" font-family="Arial" font-size="9.00">mne.SourceSpaces</text>
</g>
<!-- fwd -->
<g id="node16" class="node"><title>fwd</title>
<polygon fill="#ff6347" stroke="#ff6347" points="418,-204 314,-204 314,-168 418,-168 418,-204"/>
<text text-anchor="start" x="322.5" y="-190.2" font-family="Arial" font-size="12.00">Forward solution</text>
<text text-anchor="start" x="322" y="-178" font-family="Arial" font-size="9.00">mne.forward.Forward</text>
</g>
<!-- src&#45;&gt;fwd -->
<g id="edge14" class="edge"><title>src&#45;&gt;fwd</title>
<path fill="none" stroke="black" d="M313.87,-249.8C322.89,-238.76 334.55,-224.49 344.56,-212.24"/>
<polygon fill="black" stroke="black" points="347.553,-214.108 351.17,-204.15 342.132,-209.679 347.553,-214.108"/>
</g>
<!-- bem -->
<g id="node3" class="node"><title>bem</title>
<polygon fill="#ff6347" stroke="#ff6347" points="431,-286 377,-286 377,-250 431,-250 431,-286"/>
<text text-anchor="middle" x="404" y="-263.4" font-family="Arial" font-size="14.00">BEM</text>
</g>
<!-- bem&#45;&gt;fwd -->
<g id="edge16" class="edge"><title>bem&#45;&gt;fwd</title>
<path fill="none" stroke="black" d="M395.57,-249.8C390.6,-239.08 384.21,-225.31 378.65,-213.3"/>
<polygon fill="black" stroke="black" points="381.79,-211.752 374.41,-204.15 375.439,-214.695 381.79,-211.752"/>
</g>
<!-- recon -->
<g id="node4" class="node"><title>recon</title>
<polygon fill="#ff6347" stroke="#ff6347" points="359,-368 217,-368 217,-332 359,-332 359,-368"/>
<text text-anchor="middle" x="288" y="-345.4" font-family="Arial" font-size="14.00">Freesurfer surfaces</text>
</g>
<!-- recon&#45;&gt;src -->
<g id="edge5" class="edge"><title>recon&#45;&gt;src</title>
<path fill="none" stroke="black" d="M287.36,-332C287.32,-323.47 287.65,-313.17 289,-304 289.39,-301.32 289.93,-298.57 290.54,-295.82"/>
<polygon fill="black" stroke="black" points="293.934,-296.675 293.02,-286.12 287.152,-294.941 293.934,-296.675"/>
<text text-anchor="start" x="289" y="-307.4" font-family="Arial" font-size="9.00">mne.setup_source_space</text>
</g>
<!-- recon&#45;&gt;bem -->
<g id="edge3" class="edge"><title>recon&#45;&gt;bem</title>
<path fill="none" stroke="black" d="M359.06,-333.51C377.13,-327.91 393.12,-321.23 399,-314 402.96,-309.13 404.97,-302.94 405.85,-296.7"/>
<polygon fill="black" stroke="black" points="409.363,-296.545 406.41,-286.37 402.374,-296.166 409.363,-296.545"/>
</g>
<!-- T1 -->
<g id="node7" class="node"><title>T1</title>
<polygon fill="#ff6347" stroke="#ff6347" points="315,-494 261,-494 261,-458 315,-458 315,-494"/>
<text text-anchor="middle" x="288" y="-471.4" font-family="Arial" font-size="14.00">T1</text>
</g>
<!-- T1&#45;&gt;recon -->
<g id="edge7" class="edge"><title>T1&#45;&gt;recon</title>
<path fill="none" stroke="black" d="M288,-457.95C288,-437.08 288,-402.49 288,-378.1"/>
<polygon fill="black" stroke="black" points="291.5,-378.02 288,-368.02 284.5,-378.02 291.5,-378.02"/>
</g>
<!-- flashes -->
<g id="node9" class="node"><title>flashes</title>
<polygon fill="#ff6347" stroke="#ff6347" points="457,-368 377,-368 377,-332 457,-332 457,-368"/>
<text text-anchor="middle" x="417" y="-345.4" font-family="Arial" font-size="14.00">Flash5/30</text>
</g>
<!-- flashes&#45;&gt;bem -->
<g id="edge9" class="edge"><title>flashes&#45;&gt;bem</title>
<path fill="none" stroke="black" d="M414.11,-331.8C412.47,-321.4 410.36,-308.12 408.5,-296.38"/>
<polygon fill="black" stroke="black" points="411.901,-295.479 406.88,-286.15 404.987,-296.574 411.901,-295.479"/>
</g>
<!-- inv -->
<g id="node12" class="node"><title>inv</title>
<polygon fill="#7bbeca" stroke="#7bbeca" points="435,-116 261,-116 261,-80 435,-80 435,-116"/>
<text text-anchor="start" x="305.5" y="-102.2" font-family="Arial" font-size="12.00">Inverse operator</text>
<text text-anchor="start" x="269.5" y="-90" font-family="Arial" font-size="9.00">mne.minimum_norm.InverseOperator</text>
</g>
<!-- stc -->
<g id="node14" class="node"><title>stc</title>
<polygon fill="#ff6347" stroke="#ff6347" points="215,-36 111,-36 111,-1.77636e-14 215,-3.55271e-15 215,-36"/>
<text text-anchor="start" x="120" y="-22.2" font-family="Arial" font-size="12.00">Source estimate</text>
<text text-anchor="start" x="119" y="-10" font-family="Arial" font-size="9.00">mne.SourceEstimate</text>
</g>
<!-- inv&#45;&gt;stc -->
<g id="edge12" class="edge"><title>inv&#45;&gt;stc</title>
<path fill="none" stroke="black" d="M306.02,-79.847C278.82,-68.084 243.21,-52.685 214.33,-40.196"/>
<polygon fill="black" stroke="black" points="215.378,-36.836 204.81,-36.081 212.6,-43.2615 215.378,-36.836"/>
</g>
<!-- legend -->
<g id="node13" class="node"><title>legend</title>
<polygon fill="#7bbeca" stroke="#7bbeca" points="457,-99 457,-117 476,-117 476,-99 457,-99"/>
<text text-anchor="start" x="461.5" y="-105.9" font-family="Arial" font-size="9.00"> &#160;&#160;&#160;</text>
<text text-anchor="start" x="484" y="-105.9" font-family="Arial" font-size="9.00">Sensor (M/EEG) space</text>
<polygon fill="#ff6347" stroke="#ff6347" points="457,-78 457,-95 476,-95 476,-78 457,-78"/>
<text text-anchor="start" x="461.5" y="-84.4" font-family="Arial" font-size="9.00"> &#160;&#160;&#160;</text>
<text text-anchor="start" x="484" y="-84.4" font-family="Arial" font-size="9.00">Source (brain) space</text>
</g>
<!-- fwd&#45;&gt;inv -->
<g id="edge24" class="edge"><title>fwd&#45;&gt;inv</title>
<path fill="none" stroke="black" d="M362.27,-167.77C359.81,-155.73 356.53,-139.72 353.74,-126.08"/>
<polygon fill="black" stroke="black" points="357.154,-125.305 351.72,-116.21 350.296,-126.709 357.154,-125.305"/>
</g>
<!-- pre -->
<g id="node19" class="node"><title>pre</title>
<polygon fill="#7bbeca" stroke="#7bbeca" points="118,-368 4.26326e-14,-368 0,-332 118,-332 118,-368"/>
<text text-anchor="start" x="8.5" y="-354.2" font-family="Arial" font-size="12.00">Preprocessed data</text>
<text text-anchor="start" x="34" y="-342" font-family="Arial" font-size="9.00">mne.io.Raw</text>
</g>
<!-- epo -->
<g id="node20" class="node"><title>epo</title>
<polygon fill="#7bbeca" stroke="#7bbeca" points="139,-286 49,-286 49,-250 139,-250 139,-286"/>
<text text-anchor="start" x="57" y="-272.2" font-family="Arial" font-size="12.00">Epoched data</text>
<text text-anchor="start" x="67.5" y="-260" font-family="Arial" font-size="9.00">mne.Epochs</text>
</g>
<!-- pre&#45;&gt;epo -->
<g id="edge18" class="edge"><title>pre&#45;&gt;epo</title>
<path fill="none" stroke="black" d="M66.768,-331.8C71.299,-321.19 77.107,-307.58 82.194,-295.66"/>
<polygon fill="black" stroke="black" points="85.5465,-296.721 86.254,-286.15 79.1087,-293.973 85.5465,-296.721"/>
<text text-anchor="start" x="79" y="-307.4" font-family="Arial" font-size="9.00">mne.Epochs</text>
</g>
<!-- evo -->
<g id="node22" class="node"><title>evo</title>
<polygon fill="#7bbeca" stroke="#7bbeca" points="141,-204 47,-204 47,-168 141,-168 141,-204"/>
<text text-anchor="start" x="55" y="-190.2" font-family="Arial" font-size="12.00">Averaged data</text>
<text text-anchor="start" x="68" y="-178" font-family="Arial" font-size="9.00">mne.Evoked</text>
</g>
<!-- epo&#45;&gt;evo -->
<g id="edge20" class="edge"><title>epo&#45;&gt;evo</title>
<path fill="none" stroke="black" d="M94,-249.8C94,-239.4 94,-226.12 94,-214.38"/>
<polygon fill="black" stroke="black" points="97.5001,-214.15 94,-204.15 90.5001,-214.15 97.5001,-214.15"/>
<text text-anchor="start" x="94" y="-225.4" font-family="Arial" font-size="9.00">epochs.average</text>
</g>
<!-- cov -->
<g id="node24" class="node"><title>cov</title>
<polygon fill="#7bbeca" stroke="#7bbeca" points="276,-204 168,-204 168,-168 276,-168 276,-204"/>
<text text-anchor="start" x="176.5" y="-190.2" font-family="Arial" font-size="12.00">Noise covariance</text>
<text text-anchor="start" x="188" y="-178" font-family="Arial" font-size="9.00">mne.Covariance</text>
</g>
<!-- epo&#45;&gt;cov -->
<g id="edge22" class="edge"><title>epo&#45;&gt;cov</title>
<path fill="none" stroke="black" d="M134.12,-249.93C144.75,-244.61 156.04,-238.47 166,-232 175.7,-225.71 185.65,-218.01 194.42,-210.72"/>
<polygon fill="black" stroke="black" points="196.749,-213.334 202.1,-204.19 192.214,-208.001 196.749,-213.334"/>
<text text-anchor="start" x="179" y="-225.4" font-family="Arial" font-size="9.00">mne.compute_covariance</text>
</g>
<!-- evo&#45;&gt;stc -->
<g id="edge26" class="edge"><title>evo&#45;&gt;stc</title>
<path fill="none" stroke="black" d="M91.595,-167.9C89.371,-144.85 88.32,-104.39 103,-74 108.77,-62.054 118.28,-51.39 128.05,-42.655"/>
<polygon fill="black" stroke="black" points="130.471,-45.1921 135.87,-36.076 125.965,-39.8356 130.471,-45.1921"/>
<text text-anchor="start" x="103" y="-96.4" font-family="Arial" font-size="9.00">mne.minimum_norm.apply_inverse</text>
</g>
<!-- cov&#45;&gt;inv -->
<g id="edge30" class="edge"><title>cov&#45;&gt;inv</title>
<path fill="none" stroke="black" d="M221.96,-167.55C222.86,-158.3 225.44,-147.5 232,-140 238.84,-132.18 247.25,-125.82 256.39,-120.64"/>
<polygon fill="black" stroke="black" points="258.066,-123.714 265.36,-116.03 254.866,-117.488 258.066,-123.714"/>
<text text-anchor="start" x="232" y="-143.4" font-family="Arial" font-size="9.00">mne.make_inverse_operator</text>
</g>
<!-- raw -->
<g id="node28" class="node"><title>raw</title>
<polygon fill="#7bbeca" stroke="#7bbeca" points="71,-494 5,-494 5,-458 71,-458 71,-494"/>
<text text-anchor="start" x="13" y="-480.2" font-family="Arial" font-size="12.00">Raw data</text>
<text text-anchor="start" x="13" y="-468" font-family="Arial" font-size="9.00">mne.io.Raw</text>
</g>
<!-- raw&#45;&gt;pre -->
<g id="edge28" class="edge"><title>raw&#45;&gt;pre</title>
<path fill="none" stroke="black" d="M36.727,-457.77C35.925,-439.37 35.984,-410.29 42,-386 42.701,-383.17 43.633,-380.29 44.7,-377.47"/>
<polygon fill="black" stroke="black" points="47.9687,-378.729 48.713,-368.16 41.5405,-375.958 47.9687,-378.729"/>
<text text-anchor="start" x="42" y="-433.4" font-family="Arial" font-size="9.00">raw.filter</text>
<text text-anchor="start" x="42" y="-422.6" font-family="Arial" font-size="9.00">mne.preprocessing.ICA</text>
<text text-anchor="start" x="42" y="-411.8" font-family="Arial" font-size="9.00">mne.preprocessing.compute_proj_eog</text>
<text text-anchor="start" x="42" y="-401" font-family="Arial" font-size="9.00">mne.preprocessing.compute_proj_ecg</text>
<text text-anchor="start" x="42" y="-390.2" font-family="Arial" font-size="9.00">...</text>
</g>
<!-- trans -->
<g id="node31" class="node"><title>trans</title>
<polygon fill="#7bbeca" stroke="#7bbeca" points="589,-286 473,-286 473,-250 589,-250 589,-286"/>
<text text-anchor="middle" x="531" y="-263.4" font-family="Arial" font-size="14.00">Head&#45;MRI trans</text>
</g>
<!-- trans&#45;&gt;fwd -->
<g id="edge32" class="edge"><title>trans&#45;&gt;fwd</title>
<path fill="none" stroke="black" d="M494.38,-249.8C469.84,-237.6 437.35,-221.46 411.2,-208.46"/>
<polygon fill="black" stroke="black" points="412.744,-205.319 402.23,-204.01 409.633,-211.59 412.744,-205.319"/>
<text text-anchor="start" x="458" y="-225.4" font-family="Arial" font-size="9.00">mne.make_forward_solution</text>
</g>
</g>
</svg>
