<?xml version="1.0" encoding="UTF-8" standalone="no"?>
<!DOCTYPE svg PUBLIC "-//W3C//DTD SVG 1.1//EN"
 "http://www.w3.org/Graphics/SVG/1.1/DTD/svg11.dtd">
<!-- Generated by graphviz version 2.43.0 (0)
 -->
<!-- Title: gitstructure Pages: 1 -->
<svg width="1263pt" height="334pt"
 viewBox="0.00 0.00 1263.00 334.00" xmlns="http://www.w3.org/2000/svg" xmlns:xlink="http://www.w3.org/1999/xlink">
<g id="graph0" class="graph" transform="scale(1 1) rotate(0) translate(36 298)">
<title>gitstructure</title>
<polygon fill="white" stroke="transparent" points="-36,36 -36,-298 1227,-298 1227,36 -36,36"/>
<text text-anchor="middle" x="595.5" y="-242" font-family="Source Sans Pro" font-size="20.00">Schematic of recommended setup</text>
<g id="clust1" class="cluster">
<title>cluster_0</title>
<polygon fill="none" stroke="#33bbee" stroke-width="1.5" stroke-dasharray="5,2" points="8,-114 8,-224 1183,-224 1183,-114 8,-114"/>
<text text-anchor="start" x="547.5" y="-206.6" font-family="Source Sans Pro" font-weight="bold" font-size="18.00" fill="#33bbee">REMOTES</text>
<text text-anchor="start" x="592" y="-188.6" font-family="Source Sans Pro" font-weight="bold" font-size="18.00" fill="#33bbee"> </text>
</g>
<!-- upstream -->
<g id="node1" class="node">
<title>upstream</title>
<polygon fill="#bbbbbb" stroke="black" points="427.5,-172 16.5,-172 16.5,-122 427.5,-122 427.5,-172"/>
<text text-anchor="start" x="41.5" y="-153.2" font-family="Open Sans,Arial" font-size="16.00">Official version (“upstream”)</text>
<text text-anchor="start" x="41.5" y="-134" font-family="Open Sans,Arial" font-size="20.00">https://github.com/mne&#45;tools/mne&#45;python</text>
</g>
<!-- yourfork -->
<g id="node2" class="node">
<title>yourfork</title>
<polygon fill="#bbbbbb" stroke="black" points="1175,-172 647,-172 647,-122 1175,-122 1175,-172"/>
<text text-anchor="start" x="672" y="-153.2" font-family="Open Sans,Arial" font-size="16.00">Your fork (“origin”)</text>
<text text-anchor="start" x="672" y="-134" font-family="Open Sans,Arial" font-size="20.00">https://github.com/your_github_username/mne&#45;python</text>
</g>
<!-- upstream&#45;&gt;yourfork -->
<g id="edge1" class="edge">
<title>upstream&#45;&gt;yourfork</title>
<path fill="none" stroke="#ee7733" stroke-width="2.5" d="M427.79,-147C492.69,-147 565.48,-147 634.48,-147"/>
<polygon fill="#ee7733" stroke="#ee7733" stroke-width="2.5" points="634.86,-151.2 646.86,-147 634.86,-142.8 634.86,-151.2"/>
<text text-anchor="start" x="436.25" y="-173.2" font-family="Source Sans Pro" font-size="16.00" fill="#ee7733">1. “fork” button on </text>
<text text-anchor="middle" x="537.25" y="-155.2" font-family="Source Sans Pro" font-size="16.00" fill="#ee7733"> upstream&#39;s GitHub page</text>
</g>
<!-- yourclone -->
<g id="node3" class="node">
<title>yourclone</title>
<polygon fill="#bbbbbb" stroke="black" points="840,-50 404,-50 404,0 840,0 840,-50"/>
<text text-anchor="start" x="429" y="-31.2" font-family="Open Sans,Arial" font-size="16.00">Your local clone</text>
<text text-anchor="start" x="429" y="-12" font-family="Open Sans,Arial" font-size="20.00">/somewhere/on/your/computer/mne&#45;python/</text>
</g>
<!-- yourfork&#45;&gt;yourclone -->
<g id="edge2" class="edge">
<title>yourfork&#45;&gt;yourclone</title>
<path fill="none" stroke="#009988" stroke-width="2.5" stroke-opacity="0.333333" d="M852.86,-121.86C806.22,-102.49 740.62,-75.26 691.26,-54.76"/>
<polygon fill="#009988" fill-opacity="0.333333" stroke="#009988" stroke-width="2.5" stroke-opacity="0.333333" points="692.74,-50.82 680.04,-50.1 689.51,-58.58 692.74,-50.82"/>
<text text-anchor="start" x="783" y="-82.2" font-family="Source Code Pro" font-size="16.00" fill="#009988">2. git clone ... </text>
</g>
<!-- yourclone&#45;&gt;upstream -->
<g id="edge3" class="edge">
<title>yourclone&#45;&gt;upstream</title>
<path fill="none" stroke="#ee3377" stroke-width="2.5" stroke-opacity="0.333333" d="M541.66,-50.1C475.92,-69.82 382.9,-97.73 314.14,-118.36"/>
<polygon fill="#ee3377" fill-opacity="0.333333" stroke="#ee3377" stroke-width="2.5" stroke-opacity="0.333333" points="312.75,-114.39 302.46,-121.86 315.17,-122.44 312.75,-114.39"/>
<text text-anchor="end" x="660" y="-82.2" font-family="Source Code Pro" font-size="16.00" fill="#ee3377">3. git remote add ... </text>
</g>
</g>
</svg>
